<svg id="visual" viewBox="0 0 960 540" width="960" height="540" xmlns="http://www.w3.org/2000/svg" xmlns:xlink="http://www.w3.org/1999/xlink" version="1.1"><rect x="0" y="0" width="960" height="540" fill="#fdfbff"></rect><path d="M0 334L22.8 329.8C45.7 325.7 91.3 317.3 137 329.5C182.7 341.7 228.3 374.3 274 391.8C319.7 409.3 365.3 411.7 411.2 388.5C457 365.3 503 316.7 548.8 294C594.7 271.3 640.3 274.7 686 307.5C731.7 340.3 777.3 402.7 823 406.7C868.7 410.7 914.3 356.3 937.2 329.2L960 302L960 541L937.2 541C914.3 541 868.7 541 823 541C777.3 541 731.7 541 686 541C640.3 541 594.7 541 548.8 541C503 541 457 541 411.2 541C365.3 541 319.7 541 274 541C228.3 541 182.7 541 137 541C91.3 541 45.7 541 22.8 541L0 541Z" fill="#e6d4f2" stroke-linecap="round" stroke-linejoin="miter"></path></svg>