<svg id="visual" viewBox="0 0 960 540" width="960" height="540" xmlns="http://www.w3.org/2000/svg" xmlns:xlink="http://www.w3.org/1999/xlink" version="1.1"><rect x="0" y="0" width="960" height="540" fill="#fff"></rect><path d="M468 0L667 0L667 49L469 49L469 98L720 98L720 147L473 147L473 196L639 196L639 245L689 245L689 295L377 295L377 344L533 344L533 393L601 393L601 442L714 442L714 491L404 491L404 540L0 540L0 491L0 491L0 442L0 442L0 393L0 393L0 344L0 344L0 295L0 295L0 245L0 245L0 196L0 196L0 147L0 147L0 98L0 98L0 49L0 49L0 0L0 0Z" fill="#eee3f5"></path><path d="M429 0L121 0L121 49L170 49L170 98L247 98L247 147L129 147L129 196L208 196L208 245L244 245L244 295L304 295L304 344L144 344L144 393L161 393L161 442L231 442L231 491L318 491L318 540L0 540L0 491L0 491L0 442L0 442L0 393L0 393L0 344L0 344L0 295L0 295L0 245L0 245L0 196L0 196L0 147L0 147L0 98L0 98L0 49L0 49L0 0L0 0Z" fill="#e6d4f2"></path></svg>