<svg id="visual" viewBox="0 0 900 600" width="900" height="600" xmlns="http://www.w3.org/2000/svg" xmlns:xlink="http://www.w3.org/1999/xlink" version="1.1"><path d="M0 103L300 79L600 79L900 91L900 0L600 0L300 0L0 0Z" fill="#fdfbff"></path><path d="M0 169L300 157L600 127L900 163L900 89L600 77L300 77L0 101Z" fill="#f8f3fd"></path><path d="M0 343L300 337L600 289L900 277L900 161L600 125L300 155L0 167Z" fill="#f3ecfa"></path><path d="M0 463L300 457L600 457L900 451L900 275L600 287L300 335L0 341Z" fill="#efe4f8"></path><path d="M0 535L300 505L600 529L900 511L900 449L600 455L300 455L0 461Z" fill="#eadcf5"></path><path d="M0 601L300 601L600 601L900 601L900 509L600 527L300 503L0 533Z" fill="#e6d4f2"></path></svg>